<?xml version="1.0" encoding="utf-8"?>
<!-- Generator: Adobe Illustrator 26.4.1, SVG Export Plug-In . SVG Version: 6.00 Build 0)  -->
<svg version="1.1" id="Layer_1" xmlns="http://www.w3.org/2000/svg" xmlns:xlink="http://www.w3.org/1999/xlink" x="0px" y="0px"
	 viewBox="0 0 800 800" style="enable-background:new 0 0 800 800;" xml:space="preserve">
<style type="text/css">
	.st0{fill:#B89F39;}
</style>
<path class="st0" d="M656,245.1v533.6H80V373.3h32V576h194.7v32H112v138.7h277.5L389.3,552H218.7c-58.7,0-85.1-44.3-80.4-87.4
	l23.6-209.6c4.7-43.1,43.5-74.1,86.6-69.4c24.8,2.7,45.1,16.5,58.4,35.4c8.1,11.5,34.5,45.2,34.5,45.2l91.6-49.3l-3.8-7
	c-2.5-4.7-0.7-10.5,3.9-13c4.7-2.5,10.5-0.7,13,3.9l3.8,7c17-8.7,38-2.3,47.1,14.6c9.1,17,2.9,38.1-13.9,47.4l13.3,24.9l212.3-114.8
	l15.2,28.2L656,245.1z M624,746.7V432H440v-70.1l-58.8,31.8L366,365.5l113.6-61.4l-13.3-24.9l-117.4,63.2c-5.3,2.8-11,4.2-16.7,4.2
	c-7.8,0-15.6-2.6-21.9-7.6l-15,133.1h121.4c29.1,0,52.7,23.6,52.7,52.7v222H624z"/>
<circle cx="328.8" cy="113.8" r="80.8"/>
</svg>
