<?xml version="1.0" encoding="utf-8"?>
<!-- Generator: Adobe Illustrator 26.4.1, SVG Export Plug-In . SVG Version: 6.00 Build 0)  -->
<svg version="1.1" id="Capa_1" xmlns="http://www.w3.org/2000/svg" xmlns:xlink="http://www.w3.org/1999/xlink" x="0px" y="0px"
	 viewBox="0 0 800 800" style="enable-background:new 0 0 800 800;" xml:space="preserve">
<style type="text/css">
	.st0{fill:#1F70C1;}
	.st1{fill:#FFFFFF;}
	.st2{font-family:'MyriadPro-SemiboldSemiExt';}
	.st3{font-size:154.8391px;}
</style>
<g>
	<path class="st0" d="M1,326.8c-2.9-5.1,0.7-11.4,6.5-11.4h30.7v-59.9c0-66.8,54.4-121.2,121.2-121.2h73.8v50.6h-73.8
		c-38.9,0-70.4,31.5-70.4,70.4v59.9h30.7c5.9,0,9.5,6.4,6.5,11.4l-56,97.2c-2.9,5.1-10.3,5.1-13.2,0L1,326.8z M683.2,194.4
		c15.2,0,27.4-12.2,27.4-27.4s-12.2-27.4-27.4-27.4s-27.4,12.2-27.4,27.4S668,194.4,683.2,194.4z M395.1,194.4
		c15.2,0,27.4-12.2,27.4-27.4s-12.2-27.4-27.4-27.4c-15.2,0-27.4,12.2-27.4,27.4S380.1,194.4,395.1,194.4z M278.3,283.2V50.7
		c0-25,20.2-45.2,45.2-45.2h431.1c25,0,45.2,20.2,45.2,45.2v232.5c0,25-20.2,45.2-45.2,45.2h-431
		C298.6,328.5,278.3,308.2,278.3,283.2z M317,236.4c2.6-0.5,5.2-0.7,8-0.7c25.3,0,45.7,20.4,45.7,45.7c0,2.9-0.3,5.7-0.8,8.5h334.8
		c-0.2-1.8-0.3-3.8-0.3-5.7c0-25.3,20.4-45.7,45.7-45.7c3.9,0,7.7,0.5,11.3,1.5V99.5c-3.6,1-7.3,1.5-11.3,1.5
		c-25.3,0-45.7-20.4-45.7-45.7c0-3.9,0.5-7.5,1.5-11.1H370c0.5,2.8,0.8,5.6,0.8,8.5c0,25.3-20.4,45.7-45.7,45.7
		c-2.8,0-5.4-0.3-8-0.7L317,236.4L317,236.4z M440.2,167c0-54.7,44.3-99,99-99s99,44.3,99,99s-44.3,99-99,99S440.2,221.7,440.2,167z
		 M640.5,614.9h-73.8v50.6h73.8c66.8,0,121.2-54.4,121.2-121.2v-59.9h30.7c5.9,0,9.5-6.4,6.5-11.4l-56-97c-2.9-5.1-10.3-5.1-13.2,0
		l-56,97.2c-2.9,5.1,0.7,11.4,6.5,11.4h30.7v59.9C710.9,583.4,679.4,614.9,640.5,614.9z M404.9,660.5c15.2,0,27.4-12.2,27.4-27.4
		s-12.2-27.4-27.4-27.4c-15.2,0-27.4,12.2-27.4,27.4S389.7,660.5,404.9,660.5z M116.8,660.5c15.2,0,27.4-12.2,27.4-27.4
		s-12.2-27.4-27.4-27.4S89.4,617.8,89.4,633S101.6,660.5,116.8,660.5z M0.1,749.3V516.8c0-25,20.2-45.2,45.2-45.2h431.1
		c25,0,45.2,20.2,45.2,45.2v232.5c0,25-20.2,45.2-45.2,45.2H45.3C20.3,794.5,0.1,774.3,0.1,749.3z M38.6,702.4
		c2.6-0.5,5.2-0.7,8-0.7c25.3,0,45.7,20.4,45.7,45.7c0,2.9-0.3,5.7-0.8,8.5h334.8c-0.2-1.8-0.3-3.8-0.3-5.7
		c0-25.3,20.4-45.7,45.7-45.7c3.9,0,7.7,0.5,11.3,1.5V565.8c-3.6,1-7.3,1.5-11.3,1.5c-25.3,0-45.7-20.4-45.7-45.7
		c0-3.9,0.5-7.5,1.5-11.1H91.7c0.5,2.8,0.8,5.6,0.8,8.5c0,25.3-20.4,45.7-45.7,45.7c-2.8,0-5.4-0.3-8-0.7v138.5L38.6,702.4
		L38.6,702.4z M161.7,633c0-54.7,44.3-99,99-99s99,44.3,99,99s-44.3,99-99,99C206.2,732,161.7,687.7,161.7,633z"/>
	<text transform="matrix(1 0 0 1 483.14 216.1541)" class="st1 st2 st3">N</text>
	<path class="st1" d="M597.6,175.9H485.4c-2.2,0-4-1.8-4-4v-11c0-2.2,1.8-4,4-4h112.2c2.2,0,4,1.8,4,4v11
		C601.6,174.1,599.8,175.9,597.6,175.9z"/>
	<text transform="matrix(1 0 0 1 202.5129 684.8097)" class="st1 st2 st3">N</text>
	<path class="st1" d="M316.9,644.5H204.8c-2.2,0-4-1.8-4-4v-11c0-2.2,1.8-4,4-4H317c2.2,0,4,1.8,4,4v11
		C321,642.7,319.2,644.5,316.9,644.5z"/>
</g>
</svg>
