<?xml version="1.0" encoding="utf-8"?>
<!-- Generator: Adobe Illustrator 26.4.1, SVG Export Plug-In . SVG Version: 6.00 Build 0)  -->
<svg version="1.1" id="Layer_1" xmlns="http://www.w3.org/2000/svg" xmlns:xlink="http://www.w3.org/1999/xlink" x="0px" y="0px"
	 viewBox="0 0 800 800" style="enable-background:new 0 0 800 800;" xml:space="preserve">
<style type="text/css">
	.st0{fill:#AF413F;}
</style>
<g>
	<g>
		<path class="st0" d="M677,349.4l-45.2-14.3c-31.3-9.9-48.6-43.2-38.8-74.5c5.3-16.8,17.4-29.6,32.4-36.3
			c3-11.1,10.9-40.8,17.5-65.5c-52,0-55.8,0-131,0c-40.2,0-73.1,32.7-73.3,73l-1.1,227.7c-0.1,17.1,13.7,31.1,30.8,31.1
			c0.1,0,0.1,0,0.2,0c17,0,30.9-13.8,31-30.8l1.1-227.7c0-3.4,2.8-6.1,6.2-6.1c3.4,0,6.1,2.8,6.1,6.1l0,520.9
			c0,20.5,16.6,37.2,37.2,37.2c20.5,0,37.2-16.6,37.2-37.2V455.7h16.1V753c0,20.5,16.6,37.2,37.2,37.2c20.5,0,37.2-16.6,37.2-37.2
			C677.7,725.8,677,376.6,677,349.4z"/>
	</g>
</g>
<g>
	<g>
		<circle cx="595.3" cy="74.1" r="64.2"/>
	</g>
</g>
<g>
	<g>
		<path d="M797,302.9c-5.5-11.6-40.1-84.9-45.8-96.9c-10.9-23-31.8-39.4-56-45.1l-16,60c6,0.7,11.4,4.1,14.7,9.2
			c1.1,1.7,0-0.4,16.8,35.1c-13.4-4.2-22-6.9-51.5-16.3c-16.3-5.1-33.7,3.9-38.9,20.2c-5.1,16,3.7,33.7,20.2,38.9l119.2,37.6
			C785.3,353.8,808.5,327.3,797,302.9z"/>
	</g>
</g>
<g>
	<g>
		<path class="st0" d="M286.8,349.4l-45.2-14.3c-17.2-5.4-30.2-18-36.8-33.4c-6.6,15.4-19.5,28-36.8,33.4l-45.4,14.3l0,403.5
			c0,20.5,16.6,37.2,37.2,37.2s37.2-16.6,37.2-37.2V455.7h16.1V753c0,20.5,16.6,37.2,37.2,37.2c20.5,0,37.2-16.6,37.2-37.2
			C287.5,725.8,286.8,376.6,286.8,349.4z"/>
	</g>
</g>
<g>
	<g>
		<circle cx="205.1" cy="74.1" r="64.2"/>
	</g>
</g>
<g>
	<g>
		<path class="st0" d="M157,158.8c6.5,24.2,10.5,39.2,17.5,65.5c13.3,6,24.4,16.8,30.4,30.9c6-14.2,17.1-25,30.4-30.9
			c3-11.1,10.9-40.8,17.5-65.5C247.9,158.8,203.2,158.8,157,158.8z"/>
	</g>
</g>
<g>
	<g>
		<path d="M406.7,302.9c-5.5-11.6-40.1-84.9-45.8-96.9c-10.9-23-31.8-39.4-56-45.1l-16,60c7,0.9,13.1,5.3,16,11.6l15.5,32.7
			c-13.4-4.2-22-6.9-51.5-16.3c-16.3-5.1-33.7,3.9-38.9,20.2c-5.1,16,3.7,33.7,20.2,38.9l119.2,37.6
			C395.1,353.8,418.3,327.3,406.7,302.9z"/>
	</g>
</g>
<g>
	<g>
		<path d="M179.8,269.2c-5.2-16.3-22.6-25.4-38.9-20.2l-51.5,16.3l15.5-32.7c3-6.3,9.1-10.7,16-11.6l-16-60
			c-24.2,5.6-45.2,22.1-56,45.1c-5.8,12.2-41.1,86.9-45.8,96.9c-11.6,24.6,11.9,50.8,37.3,42.8l119.2-37.6
			C176.2,302.8,184.9,285.1,179.8,269.2z"/>
	</g>
</g>
</svg>
